<svg xmlns="http://www.w3.org/2000/svg" version="1.1" xmlns:xlink="http://www.w3.org/1999/xlink" xmlns:svgjs="http://svgjs.dev/svgjs" width="2000" height="2414" viewBox="0 0 2000 2414"><g transform="matrix(1,0,0,1,-1.624857142857195,3.340711745561748)"><svg viewBox="0 0 140 169" data-background-color="#000000" preserveAspectRatio="xMidYMid meet" height="2414" width="2000" xmlns="http://www.w3.org/2000/svg" xmlns:xlink="http://www.w3.org/1999/xlink"><g id="tight-bounds" transform="matrix(1,0,0,1,0.11374000000000706,-0.23359749999997348)"><svg viewBox="0 0 139.77252 169.46747499999998" height="169.46747499999998" width="139.77252"><g><svg></svg></g><g><svg viewBox="0 0 139.77252 169.46747499999998" height="169.46747499999998" width="139.77252"><g transform="matrix(1,0,0,1,-127.87374,-39.68428)"><path d="M127.874 207.516v-167.832h139.772v167.832l-1.489 0v-6.552h-3.654v-156.136h-129.486l0 156.136h-3.654l0 6.552z" fill="#89939e" fill-rule="nonzero" stroke="none" stroke-width="1" stroke-linecap="butt" stroke-linejoin="miter" stroke-miterlimit="10" stroke-dasharray="" stroke-dashoffset="0" font-family="none" font-weight="none" font-size="none" text-anchor="none" style="mix-blend-mode: normal" data-fill-palette-color="tertiary"></path><g><path transform="translate(143.99762,209.03803) scale(0.22745,0.22745)" d="M11.2 0h-6.45c-0.367 0-0.667-0.127-0.9-0.38-0.233-0.247-0.35-0.537-0.35-0.87v0-32.5c0-0.367 0.117-0.667 0.35-0.9 0.233-0.233 0.533-0.35 0.9-0.35v0h13.6c4.333 0 7.733 0.993 10.2 2.98 2.467 1.98 3.7 4.787 3.7 8.42v0c0 2.367-0.567 4.367-1.7 6-1.133 1.633-2.633 2.867-4.5 3.7v0l6.85 12.3c0.1 0.2 0.15 0.383 0.15 0.55v0c0 0.267-0.107 0.507-0.32 0.72-0.22 0.22-0.463 0.33-0.73 0.33v0h-6.65c-0.633 0-1.1-0.16-1.4-0.48-0.3-0.313-0.517-0.603-0.65-0.87v0l-5.7-11h-5.1v11.1c0 0.333-0.123 0.623-0.37 0.87-0.253 0.253-0.563 0.38-0.93 0.38zM12.5-28.05v8.6h5.75c1.567 0 2.743-0.383 3.53-1.15 0.78-0.767 1.17-1.8 1.17-3.1v0c0-1.3-0.373-2.35-1.12-3.15-0.753-0.8-1.947-1.2-3.58-1.2v0zM63.05 0h-23.75c-0.367 0-0.667-0.127-0.9-0.38-0.233-0.247-0.35-0.537-0.35-0.87v0-32.5c0-0.367 0.117-0.667 0.35-0.9 0.233-0.233 0.533-0.35 0.9-0.35v0h23.35c0.367 0 0.667 0.117 0.9 0.35 0.233 0.233 0.35 0.533 0.35 0.9v0 4.7c0 0.367-0.117 0.667-0.35 0.9-0.233 0.233-0.533 0.35-0.9 0.35v0h-15.95v6.75h14.85c0.367 0 0.667 0.123 0.9 0.37 0.233 0.253 0.35 0.563 0.35 0.93v0 4.35c0 0.333-0.117 0.623-0.35 0.87-0.233 0.253-0.533 0.38-0.9 0.38v0h-14.85v6.95h16.35c0.367 0 0.667 0.117 0.9 0.35 0.233 0.233 0.35 0.533 0.35 0.9v0 4.7c0 0.333-0.117 0.623-0.35 0.87-0.233 0.253-0.533 0.38-0.9 0.38zM74.15 0h-6.15c-0.267 0-0.507-0.11-0.72-0.33-0.22-0.213-0.33-0.453-0.33-0.72v0c0-0.167 0.017-0.317 0.05-0.45v0l11.75-32.1c0.1-0.367 0.31-0.693 0.63-0.98 0.313-0.28 0.753-0.42 1.32-0.42v0h7.4c0.567 0 1.007 0.14 1.32 0.42 0.32 0.287 0.53 0.613 0.63 0.98v0l11.7 32.1c0.067 0.133 0.1 0.283 0.1 0.45v0c0 0.267-0.107 0.507-0.32 0.72-0.22 0.22-0.48 0.33-0.78 0.33v0h-6.15c-0.5 0-0.877-0.127-1.13-0.38-0.247-0.247-0.403-0.47-0.47-0.67v0l-1.95-5.1h-13.35l-1.9 5.1c-0.067 0.2-0.217 0.423-0.45 0.67-0.233 0.253-0.633 0.38-1.2 0.38zM84.4-26.55l-4.65 13.2h9.3zM130.05 0h-23c-0.367 0-0.667-0.127-0.9-0.38-0.233-0.247-0.35-0.537-0.35-0.87v0-32.5c0-0.367 0.117-0.667 0.35-0.9 0.233-0.233 0.533-0.35 0.9-0.35v0h6.6c0.367 0 0.667 0.117 0.9 0.35 0.233 0.233 0.35 0.533 0.35 0.9v0 26.2h15.15c0.367 0 0.667 0.123 0.9 0.37 0.233 0.253 0.35 0.563 0.35 0.93v0 5c0 0.333-0.117 0.623-0.35 0.87-0.233 0.253-0.533 0.38-0.9 0.38zM156.65 0h-4.75c-0.567 0-1.017-0.167-1.35-0.5-0.333-0.333-0.533-0.717-0.6-1.15v0l-5.45-31.95c-0.033-0.1-0.05-0.177-0.05-0.23 0-0.047 0-0.087 0-0.12v0c0-0.267 0.11-0.51 0.33-0.73 0.213-0.213 0.453-0.32 0.72-0.32v0h6.2c0.933 0 1.45 0.367 1.55 1.1v0l3.25 19.5 3.6-11.5c0.1-0.267 0.267-0.56 0.5-0.88 0.233-0.313 0.617-0.47 1.15-0.47v0h3.6c0.567 0 0.967 0.157 1.2 0.47 0.233 0.32 0.383 0.613 0.45 0.88v0l3.6 11.5 3.25-19.5c0.1-0.733 0.617-1.1 1.55-1.1v0h6.2c0.3 0 0.56 0.107 0.78 0.32 0.213 0.22 0.32 0.463 0.32 0.73v0c0 0.033-0.007 0.073-0.02 0.12-0.02 0.053-0.03 0.13-0.03 0.23v0l-5.45 31.95c-0.067 0.433-0.267 0.817-0.6 1.15-0.333 0.333-0.783 0.5-1.35 0.5v0h-4.75c-0.567 0-1-0.15-1.3-0.45-0.3-0.3-0.5-0.583-0.6-0.85v0l-5.05-14.3-5.05 14.3c-0.1 0.267-0.29 0.55-0.57 0.85-0.287 0.3-0.713 0.45-1.28 0.45zM202.15 0.5v0c-3.067 0-5.733-0.5-8-1.5-2.267-1-4.033-2.51-5.3-4.53-1.267-2.013-1.967-4.537-2.1-7.57v0c-0.033-1.433-0.05-2.877-0.05-4.33 0-1.447 0.017-2.887 0.05-4.32v0c0.133-3 0.843-5.527 2.13-7.58 1.28-2.047 3.063-3.587 5.35-4.62 2.28-1.033 4.92-1.55 7.92-1.55v0c3.033 0 5.683 0.517 7.95 1.55 2.267 1.033 4.05 2.573 5.35 4.62 1.3 2.053 2 4.58 2.1 7.58v0c0.067 1.433 0.1 2.873 0.1 4.32 0 1.453-0.033 2.897-0.1 4.33v0c-0.1 3.033-0.79 5.557-2.07 7.57-1.287 2.02-3.063 3.53-5.33 4.53-2.267 1-4.933 1.5-8 1.5zM202.15-6.7v0c1.767 0 3.21-0.533 4.33-1.6 1.113-1.067 1.703-2.767 1.77-5.1v0c0.067-1.467 0.1-2.85 0.1-4.15 0-1.3-0.033-2.65-0.1-4.05v0c-0.067-1.567-0.357-2.843-0.87-3.83-0.52-0.98-1.23-1.703-2.13-2.17-0.9-0.467-1.933-0.7-3.1-0.7v0c-1.133 0-2.15 0.233-3.05 0.7-0.9 0.467-1.617 1.19-2.15 2.17-0.533 0.987-0.833 2.263-0.9 3.83v0c-0.033 1.4-0.05 2.75-0.05 4.05 0 1.3 0.017 2.683 0.05 4.15v0c0.1 2.333 0.71 4.033 1.83 5.1 1.113 1.067 2.537 1.6 4.27 1.6zM231.15 0h-6.45c-0.367 0-0.667-0.127-0.9-0.38-0.233-0.247-0.35-0.537-0.35-0.87v0-32.5c0-0.367 0.117-0.667 0.35-0.9 0.233-0.233 0.533-0.35 0.9-0.35v0h13.6c4.333 0 7.733 0.993 10.2 2.98 2.467 1.98 3.7 4.787 3.7 8.42v0c0 2.367-0.567 4.367-1.7 6-1.133 1.633-2.633 2.867-4.5 3.7v0l6.85 12.3c0.1 0.2 0.15 0.383 0.15 0.55v0c0 0.267-0.107 0.507-0.32 0.72-0.22 0.22-0.463 0.33-0.73 0.33v0h-6.65c-0.633 0-1.1-0.16-1.4-0.48-0.3-0.313-0.517-0.603-0.65-0.87v0l-5.7-11h-5.1v11.1c0 0.333-0.123 0.623-0.37 0.87-0.253 0.253-0.563 0.38-0.93 0.38zM232.45-28.05v8.6h5.75c1.567 0 2.743-0.383 3.53-1.15 0.78-0.767 1.17-1.8 1.17-3.1v0c0-1.3-0.373-2.35-1.12-3.15-0.753-0.8-1.947-1.2-3.58-1.2v0zM282.25 0h-23c-0.367 0-0.667-0.127-0.9-0.38-0.233-0.247-0.35-0.537-0.35-0.87v0-32.5c0-0.367 0.117-0.667 0.35-0.9 0.233-0.233 0.533-0.35 0.9-0.35v0h6.6c0.367 0 0.667 0.117 0.9 0.35 0.233 0.233 0.35 0.533 0.35 0.9v0 26.2h15.15c0.367 0 0.667 0.123 0.9 0.37 0.233 0.253 0.35 0.563 0.35 0.93v0 5c0 0.333-0.117 0.623-0.35 0.87-0.233 0.253-0.533 0.38-0.9 0.38zM302.35 0h-13.25c-0.367 0-0.667-0.127-0.9-0.38-0.233-0.247-0.35-0.537-0.35-0.87v0-32.5c0-0.367 0.117-0.667 0.35-0.9 0.233-0.233 0.533-0.35 0.9-0.35v0h13c3.267 0 6.05 0.523 8.35 1.57 2.3 1.053 4.067 2.587 5.3 4.6 1.233 2.02 1.9 4.513 2 7.48v0c0.033 1.467 0.05 2.75 0.05 3.85 0 1.1-0.017 2.367-0.05 3.8v0c-0.133 3.1-0.79 5.667-1.97 7.7-1.187 2.033-2.903 3.54-5.15 4.52-2.253 0.987-5.013 1.48-8.28 1.48zM296.85-27.8v20.6h5.25c1.433 0 2.627-0.227 3.58-0.68 0.947-0.447 1.663-1.153 2.15-2.12 0.48-0.967 0.737-2.233 0.77-3.8v0c0.067-0.967 0.11-1.833 0.13-2.6 0.013-0.767 0.013-1.533 0-2.3-0.02-0.767-0.063-1.617-0.13-2.55v0c-0.067-2.267-0.657-3.927-1.77-4.98-1.12-1.047-2.78-1.57-4.98-1.57v0zM348.8 0h-13.25c-0.367 0-0.667-0.127-0.9-0.38-0.233-0.247-0.35-0.537-0.35-0.87v0-32.5c0-0.367 0.117-0.667 0.35-0.9 0.233-0.233 0.533-0.35 0.9-0.35v0h13c3.267 0 6.05 0.523 8.35 1.57 2.3 1.053 4.067 2.587 5.3 4.6 1.233 2.02 1.9 4.513 2 7.48v0c0.033 1.467 0.05 2.75 0.05 3.85 0 1.1-0.017 2.367-0.05 3.8v0c-0.133 3.1-0.79 5.667-1.97 7.7-1.187 2.033-2.907 3.54-5.16 4.52-2.247 0.987-5.003 1.48-8.27 1.48zM343.3-27.8v20.6h5.25c1.433 0 2.627-0.227 3.58-0.68 0.947-0.447 1.663-1.153 2.15-2.12 0.48-0.967 0.737-2.233 0.77-3.8v0c0.067-0.967 0.11-1.833 0.13-2.6 0.013-0.767 0.013-1.533 0-2.3-0.02-0.767-0.063-1.617-0.13-2.55v0c-0.067-2.267-0.657-3.927-1.77-4.98-1.12-1.047-2.78-1.57-4.98-1.57v0zM374.25 0h-6.15c-0.267 0-0.507-0.11-0.72-0.33-0.22-0.213-0.33-0.453-0.33-0.72v0c0-0.167 0.017-0.317 0.05-0.45v0l11.75-32.1c0.1-0.367 0.31-0.693 0.63-0.98 0.313-0.28 0.753-0.42 1.32-0.42v0h7.4c0.567 0 1.01 0.14 1.33 0.42 0.313 0.287 0.52 0.613 0.62 0.98v0l11.7 32.1c0.067 0.133 0.1 0.283 0.1 0.45v0c0 0.267-0.107 0.507-0.32 0.72-0.22 0.22-0.48 0.33-0.78 0.33v0h-6.15c-0.5 0-0.873-0.127-1.12-0.38-0.253-0.247-0.413-0.47-0.48-0.67v0l-1.95-5.1h-13.35l-1.9 5.1c-0.067 0.2-0.217 0.423-0.45 0.67-0.233 0.253-0.633 0.38-1.2 0.38zM384.5-26.55l-4.65 13.2h9.3zM421.45 0h-6.6c-0.367 0-0.667-0.127-0.9-0.38-0.233-0.247-0.35-0.537-0.35-0.87v0-25.9h-8.9c-0.367 0-0.667-0.127-0.9-0.38-0.233-0.247-0.35-0.537-0.35-0.87v0-5.35c0-0.367 0.117-0.667 0.35-0.9 0.233-0.233 0.533-0.35 0.9-0.35v0h26.9c0.367 0 0.667 0.117 0.9 0.35 0.233 0.233 0.35 0.533 0.35 0.9v0 5.35c0 0.333-0.117 0.623-0.35 0.87-0.233 0.253-0.533 0.38-0.9 0.38v0h-8.9v25.9c0 0.333-0.117 0.623-0.35 0.87-0.233 0.253-0.533 0.38-0.9 0.38zM441.55 0h-6.15c-0.267 0-0.507-0.11-0.72-0.33-0.22-0.213-0.33-0.453-0.33-0.72v0c0-0.167 0.017-0.317 0.05-0.45v0l11.75-32.1c0.1-0.367 0.31-0.693 0.63-0.98 0.313-0.28 0.753-0.42 1.32-0.42v0h7.4c0.567 0 1.01 0.14 1.33 0.42 0.313 0.287 0.52 0.613 0.62 0.98v0l11.7 32.1c0.067 0.133 0.1 0.283 0.1 0.45v0c0 0.267-0.107 0.507-0.32 0.72-0.22 0.22-0.48 0.33-0.78 0.33v0h-6.15c-0.5 0-0.873-0.127-1.12-0.38-0.253-0.247-0.413-0.47-0.48-0.67v0l-1.95-5.1h-13.35l-1.9 5.1c-0.067 0.2-0.217 0.423-0.45 0.67-0.233 0.253-0.633 0.38-1.2 0.38zM451.8-26.55l-4.65 13.2h9.3z" fill="#c4c4c4" fill-rule="nonzero" stroke="none" stroke-width="1" stroke-linecap="butt" stroke-linejoin="miter" stroke-miterlimit="10" stroke-dasharray="" stroke-dashoffset="0" font-family="none" font-weight="none" font-size="none" text-anchor="none" style="mix-blend-mode: normal" data-fill-palette-color="secondary" id="text-1"></path></g></g><g transform="matrix(1,0,0,1,12.26243958944454,56.21648749999999)"><svg viewBox="0 0 115.2476408211109 57.034499999999994" height="57.034499999999994" width="115.2476408211109"><g><svg viewBox="0 0 115.2476408211109 57.034499999999994" height="57.034499999999994" width="115.2476408211109"><g><svg viewBox="0 0 115.2476408211109 57.034499999999994" height="57.034499999999994" width="115.2476408211109"><g id="textblocktransform"><svg viewBox="0 0 115.2476408211109 57.034499999999994" height="57.034499999999994" width="115.2476408211109" id="textblock"><g><svg viewBox="0 0 115.2476408211109 57.034499999999994" height="57.034499999999994" width="115.2476408211109"><g><svg><g></g><g></g></svg></g><g><svg><g></g><g><svg></svg></g></svg></g><g id="text-0"><svg viewBox="0 0 115.2476408211109 57.034499999999994" height="57.034499999999994" width="115.2476408211109"><g><svg xmlns="http://www.w3.org/2000/svg" xmlns:xlink="http://www.w3.org/1999/xlink" xml:space="preserve" version="1.1" style="shape-rendering:geometricPrecision;text-rendering:geometricPrecision;image-rendering:optimizeQuality;" viewBox="19 15.25 61 68.90470053837926" x="0" y="0" fill-rule="evenodd" clip-rule="evenodd" height="57.034499999999994" width="50.49154082111092" class="icon-cg-0" data-fill-palette-color="accent" id="cg-0"><g fill="#aeaeae" data-fill-palette-color="accent"><path class="" d="M53 16c9 5 16 9 24 14 2 1 3 2 3 5 0 10 0 20 0 29 0 2-1 4-3 5-9 5-15 9-24 14-3 1-4 2-7 0-9-5-16-9-24-14-2-1-3-2-3-5 0-10 0-20 0-29 0-2 1-3 3-5 9-5 16-9 25-14 2-1 4-1 6 0z m-1 35l0 27c8-5 16-9 23-14l0-27-23 14z m-4 27l0-27-23-14 0 27c8 5 16 9 23 14z m-21-44l23 14 23-14c-8-5-16-9-23-14-8 5-16 9-23 14z" fill="#aeaeae" fill-rule="nonzero" data-fill-palette-color="accent"></path></g></svg></g><g transform="matrix(1,0,0,1,63.957040821110915,0)"><svg width="51.2906" viewBox="3.2 -35.25 31.7 35.25" height="57.034499999999994" data-palette-color="#89939e"><path d="M29.3-10L34.9 0 24.8 0 18.7-11.25Q17.55-13.2 15.05-13.2L15.05-13.2 12.25-13.2 12.25 0 3.2 0 3.2-35.25 20-35.25Q26.4-35.25 29.63-32.48 32.85-29.7 32.85-24.45L32.85-24.45Q32.85-20.45 30.65-17.68 28.45-14.9 24.45-13.95L24.45-13.95Q27.5-13.3 29.3-10L29.3-10ZM18.55-20.1Q21.6-20.1 22.93-21.05 24.25-22 24.25-24.15L24.25-24.15Q24.25-26.35 22.93-27.33 21.6-28.3 18.55-28.3L18.55-28.3 12.15-28.3 12.15-20.1 18.55-20.1Z" opacity="1" transform="matrix(1,0,0,1,0,0)" fill="#89939e" class="wordmark-text-0" data-fill-palette-color="primary"></path></svg></g></svg></g></svg></g></svg></g></svg></g></svg></g></svg></g></svg></g><defs></defs></svg><rect width="139.77252" height="169.46747499999998" fill="none" stroke="none" visibility="hidden"></rect></g></svg></g></svg>